<svg width="5" height="20" viewBox="0 0 6 20" fill="none" xmlns="http://www.w3.org/2000/svg">
<path d="M2.99283 12.1951C4.18331 12.1951 5.13569 11.2195 5.13569 10C5.13569 8.78049 4.18331 7.80488 2.99283 7.80488C1.80236 7.80488 0.849976 8.78049 0.849976 10C0.849976 11.2195 1.80236 12.1951 2.99283 12.1951ZM0.849976 17.8049C0.849976 16.5854 1.80236 15.6098 2.99283 15.6098C4.18331 15.6098 5.13569 16.5854 5.13569 17.8049C5.13569 19.0244 4.18331 20 2.99283 20C1.80236 20 0.849976 19.0244 0.849976 17.8049ZM0.849976 2.19512C0.849976 0.975609 1.80236 0 2.99283 0C4.18331 0 5.13569 0.975609 5.13569 2.19512C5.13569 3.41463 4.18331 4.39024 2.99283 4.39024C1.80236 4.39024 0.849976 3.41463 0.849976 2.19512Z" fill="#6774BD"/>
</svg>
