<svg width="24" height="24" viewBox="0 0 24 24" fill="none" xmlns="http://www.w3.org/2000/svg">
<rect x="0.5" y="0.5" width="23" height="23" rx="5.5" fill="#EDEDFC"/>
<rect x="0.5" y="0.5" width="23" height="23" rx="5.5" stroke="#807CEA" stroke-dasharray="4 2"/>
<path fill-rule="evenodd" clip-rule="evenodd" d="M12 6.75C12.3624 6.75 12.6562 7.04381 12.6562 7.40625V11.3438H16.5937C16.9562 11.3438 17.25 11.6376 17.25 12C17.25 12.3624 16.9562 12.6563 16.5937 12.6563H12.6562V16.5938C12.6562 16.9562 12.3624 17.25 12 17.25C11.6376 17.25 11.3437 16.9562 11.3437 16.5938V12.6563H7.40625C7.04381 12.6563 6.75 12.3624 6.75 12C6.75 11.6376 7.04381 11.3438 7.40625 11.3438H11.3437V7.40625C11.3437 7.04381 11.6376 6.75 12 6.75Z" fill="#464F60"/>
</svg>
